<svg width="124" height="110" fill="none" xmlns="http://www.w3.org/2000/svg"><path d="M105.155 42.355a1.534 1.534 0 1 1 2.934.897l-2.934-.897ZM92.938 92.844a1.534 1.534 0 0 1-2.935-.897l2.935.897Zm-79.332-9.23-.36 1.49-.182-.043-.166-.087.708-1.36Zm99.681-53.504a1.534 1.534 0 0 1 2.543-1.717l-2.543 1.717ZM96.056 103.5l-.36 1.492.36-1.492Zm-5.03-5.755.332-1.498-.332 1.498Zm24.322-58.785L98.284 94.814l-2.935-.896 17.065-55.854 2.934.896ZM.199 74.353 17.756 16.89l2.934.897L3.134 75.25l-2.935-.897ZM113.546 40.01 18.888 18.835l.67-2.995 94.658 21.175-.67 2.994Zm-2.893-11.633L27.485 9.03l.696-2.989 83.167 19.345-.695 2.989ZM22.485 11.913l-1.794 5.873-2.935-.897 1.794-5.872 2.935.896Zm85.604 31.339-.018.061-.019.062-.019.063-.02.063-.019.063-.02.064-.019.064-.02.065-.02.065-.02.065-.02.066a27.36 27.36 0 0 0-.041.133l-.02.068-.021.068-.021.068a58.612 58.612 0 0 0-.042.137l-.021.07-.021.07-.022.07a63.679 63.679 0 0 0-.043.142l-.022.071-.022.072-.022.072-.022.073-.023.073-.022.074-.023.074-.022.074-.023.075-.023.075-.023.075-.023.076-.024.077-.023.076-.024.077a37.48 37.48 0 0 0-.071.233l-.024.08a78.173 78.173 0 0 0-.097.318l-.025.08a2.576 2.576 0 0 1-.025.08l-.024.082a2.54 2.54 0 0 0-.025.082l-.025.082a2.502 2.502 0 0 0-.025.082l-.026.082-.025.084-.026.083-.025.084-.026.084a2.9 2.9 0 0 1-.026.084l-.025.085a88.706 88.706 0 0 0-.053.17l-.026.086-.026.086-.027.087-.026.087-.027.087-.026.087-.027.088-.027.088-.027.089-.027.088-.027.09-.028.089-.027.09-.028.09-.027.09-.028.09-.028.092a3.28 3.28 0 0 1-.028.09l-.028.093-.028.091-.028.093-.028.092-.029.093-.028.093-.029.093-.028.094-.029.094-.029.095-.029.094-.029.095a3.553 3.553 0 0 1-.029.095l-.029.096-.029.095-.03.096-.029.097-.029.096-.03.097a116.63 116.63 0 0 0-.089.292l-.03.098-.03.099-.03.098-.03.099a3.76 3.76 0 0 0-.031.099l-.03.099a62.356 62.356 0 0 0-.061.2l-.03.1a3.73 3.73 0 0 0-.031.1l-.031.1-.031.1a129.957 129.957 0 0 0-.061.203l-.031.101a3.83 3.83 0 0 0-.031.102l-.032.102-.031.102-.031.103-.031.102-.032.103-.031.103-.032.104-.032.103-.031.104-.032.104-.032.104-.032.105-.032.104-.032.105-.032.105-.032.106-.032.105-.033.106-.032.106-.033.106-.032.106-.033.107-.032.107-.033.107-.033.107-.032.107a143.634 143.634 0 0 0-.099.323l-.033.108a146.214 146.214 0 0 0-.166.543l-.033.11-.034.108-.033.11-.034.11-.033.11-.034.11-.033.11-.034.11-.034.11a4.53 4.53 0 0 1-.034.11l-.034.112a156.47 156.47 0 0 0-.101.333l-.034.111-.034.112-.035.111-.034.112a4.765 4.765 0 0 1-.034.112l-.034.112-.034.112-.035.113-.034.112a4.676 4.676 0 0 0-.034.113l-.035.112-.034.113-.035.113-.034.113a4.752 4.752 0 0 0-.035.114l-.035.113-.034.113-.035.114-.035.114-.035.113-.034.114-.035.114-.035.115-.035.114-.035.114-.035.115-.035.114-.035.115-.035.114-.035.115-.035.115-.035.115a4.894 4.894 0 0 0-.035.115l-.036.116-.035.115-.035.115-.035.116-.036.115-.035.116-.035.115-.036.116-.035.116-.035.116-.036.116a4.962 4.962 0 0 0-.035.116l-.036.116-.035.116-.036.116-.035.116-.036.117-.035.116-.036.117-.036.116-.035.117-.036.116-.035.117-.036.116-.036.117-.035.117-.036.117-.036.117a5.174 5.174 0 0 0-.035.116l-.036.117-.036.117-.036.117-.035.117-.036.117-.036.117-.036.117-.035.117-.036.117-.036.117-.036.117-.035.118-.036.117-.036.117-.036.117-.036.117a5.197 5.197 0 0 0-.035.117l-.036.118-.036.117-.036.117-.036.117-.035.117-.036.117-.036.117-.036.117-.036.118a5.197 5.197 0 0 1-.035.117l-.036.117-.036.117-.036.117-.035.117-.036.117-.036.117-.036.117-.035.117-.036.117-.036.116a17.294 17.294 0 0 1-.071.234l-.036.117-.035.116-.036.117-.036.116-.035.117-.036.117-.035.116-.036.116-.035.117-.036.116-.035.116-.036.116-.035.117-.036.116-.035.116-.036.115-.035.116-.035.116-.036.116-.035.115-.035.116-.036.115-.035.116-.035.115a31.391 31.391 0 0 1-.07.23l-.036.115-.035.115-.035.115-.035.115-.035.115-.035.114-.035.115a38.2 38.2 0 0 0-.035.114l-.035.114-.035.115-.035.114-.035.114-.034.114-.035.113a49.25 49.25 0 0 1-.035.114l-.034.113-.035.114-.035.113-.034.113-.035.113-.034.113-.035.113a37.074 37.074 0 0 1-.069.225l-.034.113-.034.112-.035.112c-.01.037-.022.075-.034.112l-.034.112a155.377 155.377 0 0 1-.068.223l-.034.111-.034.112a154.104 154.104 0 0 1-.068.222l-.034.11-.034.111c-.01.037-.022.074-.033.11l-.034.111-.034.11-.033.11-.034.11-.034.11c-.01.037-.022.073-.033.11l-.033.109-.034.109-.033.109-.033.109a34.49 34.49 0 0 1-.033.109l-.034.108-.033.108c-.01.037-.022.073-.033.109l-.033.108-.033.107-.032.108-.033.107-.033.107-.033.107-.032.107-.033.107-.032.106-.033.106-.032.107-.033.105-.032.106-.032.105-.032.105-.032.105-.032.105-.032.105-.032.104-.032.104-.032.104-.031.104-.032.103-.032.103c-.01.035-.02.07-.031.103l-.031.103-.032.103-.031.102-.031.102-.031.102-.031.101-.031.102-.031.1-.03.102-.032.1-.03.1-.03.1-.031.1-.03.1-.031.1-.03.099-.03.098-.03.099a120.623 120.623 0 0 1-.15.489l-.03.097-.03.097-.029.096-.03.096-.028.096-.03.096-.029.095-.029.095-.029.094a111.27 111.27 0 0 1-.057.189l-.029.094-.029.093-.028.094-.028.093-.029.092-.028.093-.028.092-.028.091-.028.092-.028.091a31.407 31.407 0 0 0-.055.181l-.028.09-.027.09-.028.09-.027.09-.027.088-.027.089c-.01.029-.018.058-.027.088l-.027.088a47.942 47.942 0 0 1-.053.175l-.027.087-.026.086-.027.086c-.008.03-.017.058-.026.086l-.026.086-.026.085-.026.085a39.33 39.33 0 0 0-.026.085l-.026.084-.025.084-.026.083-.025.083-.025.083-.026.083-.025.082-.025.081-.025.082-.024.08-.025.081-.025.08-.024.08-.024.08-.024.079-.024.079-.024.078a33.396 33.396 0 0 0-.048.156l-.023.077-.024.077-.023.076-.024.076-.023.076-.023.075-.023.075-.022.075-.023.074-.023.073-.022.074-.022.073-.022.072-.022.072-.022.072-.022.071-.022.07-.021.071-.021.07a30.173 30.173 0 0 1-.043.14l-.02.068-.022.068-.02.068-.021.067a28.182 28.182 0 0 1-.041.134l-.02.066-.02.066-.02.065-.02.065-.02.065-.02.064-.019.063-.019.063-.02.063-.018.062-.019.062-.019.061-.018.061-.019.06-.018.06-.018.06-.018.059-.018.058-.018.058-.017.058-.018.057-.017.057-.017.056-.017.056-.017.055-.017.055-.017.054-.016.054-.016.053-.016.053-.016.052-.016.052-2.935-.897.016-.052.016-.052.016-.053.017-.053.016-.054.017-.054.016-.055.017-.055.017-.056.017-.056.018-.056.017-.058.018-.057.017-.058.018-.059.018-.059.019-.06a8.07 8.07 0 0 1 .055-.18l.019-.062.018-.061.02-.063.019-.062.019-.063.02-.064.019-.064.02-.064.02-.065.02-.065.02-.066.02-.066.02-.067.02-.067a24.934 24.934 0 0 1 .042-.135l.02-.069.022-.068.02-.07.022-.07.021-.07.022-.07.022-.07.021-.072.022-.071.022-.073.022-.072.023-.073.022-.073.023-.074.022-.074.023-.074.023-.075.023-.076.023-.075.023-.076.024-.077.023-.077.024-.077.023-.078.024-.078.024-.078.024-.079.025-.079.024-.08a18.635 18.635 0 0 0 .049-.16l.024-.08.025-.08.025-.082.025-.082.025-.082.025-.082.025-.083.026-.083.025-.084.026-.084.026-.084.025-.085c.01-.028.018-.056.026-.084a91.531 91.531 0 0 0 .052-.17l.027-.087.026-.086.027-.087.026-.087.027-.087.027-.088.026-.088.028-.088.027-.088.027-.09.027-.089.027-.09.028-.09.027-.09.028-.09.028-.09.028-.092.028-.091.028-.092a105.316 105.316 0 0 0 .056-.184l.028-.093.029-.093a108.272 108.272 0 0 0 .057-.187 110.302 110.302 0 0 0 .058-.188l.028-.094.029-.095a49.493 49.493 0 0 1 .058-.19l.03-.096.029-.095.029-.097.03-.096.029-.097a117.17 117.17 0 0 0 .06-.194l.029-.097.03-.098a119.616 119.616 0 0 0 .06-.197l.03-.098.03-.099.03-.099.03-.1.031-.099.03-.1.031-.1.03-.1.032-.1.03-.102.031-.1.031-.102.031-.102a39.491 39.491 0 0 1 .063-.204l.03-.102.032-.102.032-.103.031-.103.032-.103.031-.104.032-.104.032-.103a29.729 29.729 0 0 1 .063-.209l.032-.104.032-.105.032-.105.032-.105.033-.106.032-.105.032-.106.033-.106.032-.106.033-.107.032-.106.033-.107.032-.107.033-.107.033-.108.033-.107.033-.108.033-.108.033-.108.033-.109.033-.108.033-.109.034-.108c.01-.037.022-.073.033-.11l.033-.109.034-.11a65.856 65.856 0 0 1 .067-.218c.01-.037.022-.073.033-.11l.034-.11a151.703 151.703 0 0 0 .067-.22l.034-.111.034-.11.034-.112.034-.11c.01-.038.022-.075.034-.112.01-.037.022-.074.034-.111.01-.037.022-.074.034-.112.01-.037.022-.074.034-.111l.034-.112.034-.112.034-.112.034-.112.035-.112.034-.112.034-.113.035-.113.034-.112a158.964 158.964 0 0 0 .104-.34l.035-.113.034-.113.035-.114a70.802 70.802 0 0 1 .07-.227c.01-.038.022-.076.034-.114l.035-.114.035-.114.035-.114.035-.114.035-.115.035-.114.034-.115a50.12 50.12 0 0 0 .106-.344l.035-.115.035-.115.035-.115.035-.115.036-.116.035-.115.035-.116.035-.115.036-.116.035-.115.035-.116.036-.116.035-.116.036-.116.035-.116.036-.116.035-.116.036-.117.035-.116.036-.116.035-.117.036-.116.035-.117a51.723 51.723 0 0 0 .072-.233l.035-.116.036-.117.036-.117.035-.116.036-.117.036-.117.035-.117.036-.117.036-.117.036-.117.035-.117.036-.117.036-.117.035-.117a52.186 52.186 0 0 0 .108-.351l.036-.117.035-.117.036-.117.036-.118.036-.117.036-.117.035-.117a52.342 52.342 0 0 1 .072-.234l.036-.118.036-.117.035-.117a75.278 75.278 0 0 0 .072-.234l.036-.117.035-.117.036-.117.036-.117.036-.118.035-.116.036-.117.036-.118.036-.116.035-.117.036-.117.036-.117.036-.117.035-.117.036-.116.036-.117.035-.117.036-.116.035-.117.036-.117.036-.116.035-.116.036-.117.035-.116.036-.116.035-.117.036-.116.035-.116.036-.116.035-.116.035-.116.036-.115.035-.116.036-.116.035-.115.035-.116.035-.115.036-.116.035-.115.035-.115.035-.115.036-.115.035-.115.035-.115.035-.115.035-.114.035-.115.035-.114.035-.115.034-.114.035-.114.035-.114.035-.114.035-.114.035-.114.034-.113.035-.114.035-.113.034-.113.035-.113.034-.113.035-.113.034-.113.035-.112.034-.113.034-.112.035-.112.034-.112.034-.112.034-.112.034-.112.034-.111.034-.112.034-.11.034-.112.034-.11.034-.112a4.67 4.67 0 0 1 .034-.11l.033-.11.034-.111.034-.11.033-.11.034-.11.033-.11.034-.109.033-.11.034-.108.033-.11.033-.108.033-.109.033-.108.034-.108.033-.108.033-.108.032-.108.033-.108.033-.107.033-.107.032-.107.033-.107a140.363 140.363 0 0 1 .098-.319l.032-.106.032-.105.032-.106.033-.105.032-.105.032-.105.032-.105.032-.104.031-.104.032-.104.032-.104.032-.104.031-.103.032-.103.031-.103.031-.103.032-.102.031-.102.031-.102.031-.102a4.05 4.05 0 0 0 .031-.102l.031-.1.031-.102.031-.1.031-.101.03-.1.031-.1a125.749 125.749 0 0 1 .091-.299l.03-.099.03-.099.03-.098.03-.098.03-.098.03-.098.03-.097.03-.097a3.45 3.45 0 0 1 .029-.097l.03-.097.029-.096.029-.096a56.044 56.044 0 0 1 .059-.191l.029-.095.029-.095.029-.095.029-.094.028-.094.029-.094.029-.093.028-.093.028-.093.029-.093a3.14 3.14 0 0 1 .028-.092l.028-.092.028-.092.028-.091.028-.09.027-.092.028-.09.027-.09.028-.09.027-.09.027-.088.027-.09.027-.087.027-.089.027-.087.027-.088.027-.087.026-.087.027-.086.026-.086.026-.086.026-.086.026-.085.026-.084.026-.085.025-.084.026-.084.026-.083.025-.083.025-.083.025-.082.025-.082.025-.081.025-.082.025-.08.024-.08.025-.081.024-.08a78.991 78.991 0 0 1 .073-.237l.023-.078.024-.078.024-.077.023-.077.024-.077.023-.076.023-.076.023-.076.023-.075.023-.074.023-.075.022-.074.023-.073.022-.073.023-.073.022-.072.022-.072.021-.072.022-.07.022-.072a31.223 31.223 0 0 1 .043-.14l.021-.07.021-.068.021-.069.021-.068.02-.068.021-.067.02-.067.021-.066.02-.066.02-.066.02-.065.019-.065.02-.064.02-.064.019-.063.019-.063.019-.062.019-.062.019-.062 2.934.897ZM90.695 99.243 3.25 79.896 3.91 76.9l87.447 19.347-.663 2.996ZM4.288 77.037l10.026 5.215-1.416 2.722L2.872 79.76l1.416-2.722Zm9.677 5.085 82.45 19.887-.719 2.983-82.45-19.888.72-2.982Zm86.505 17.572 18.04-59.046 2.934.897-18.04 59.046-2.934-.897Zm16.203-65.069-1.325 4.335-2.934-.896 1.325-4.336 2.934.897Zm1.297 2.423-4.683-6.938 2.543-1.717 4.684 6.938-2.544 1.717Zm.54 3.6a4.23 4.23 0 0 0-.54-3.6l2.544-1.717a7.3 7.3 0 0 1 .93 6.214l-2.934-.897ZM96.416 102.01a3.405 3.405 0 0 0 4.054-2.315l2.934.897a6.473 6.473 0 0 1-7.708 4.401l.72-2.983ZM27.486 9.031a4.228 4.228 0 0 0-5.001 2.882l-2.935-.896a7.296 7.296 0 0 1 8.63-4.975l-.695 2.989Zm83.862 16.356a7.296 7.296 0 0 1 5.325 9.238l-2.934-.897a4.228 4.228 0 0 0-3.086-5.352l.695-2.989ZM3.134 75.25a1.347 1.347 0 0 0 .894 1.681l-.896 2.935a4.415 4.415 0 0 1-2.933-5.513l2.935.897Zm95.15 19.564a6.473 6.473 0 0 1-7.589 4.43l.663-2.997a3.404 3.404 0 0 0 3.991-2.33l2.935.897Z" fill="#FAFAFA"/><path d="M85.83 55.761 79.312 65.82l-1.017-9.348-7.543 10.605 1.268-16.826m-5.926 2.493L58.552 63.35l.404-9.774-8.057 10.879 2.175-16.98m-5.084-.261-8.899 13.633-1.192-5.958-8.495 3.86 2.361-14.771" stroke="#FAFAFA" stroke-width="3.292" stroke-linecap="round" stroke-linejoin="round"/><path d="M36.169 15.312c-.266.87.203 1.933 1.073 2.199a1.646 1.646 0 0 0 .962-3.15c-.87-.265-1.77.082-2.035.951Z" fill="#FAFAFA"/><path d="M30.932 14.143c-.21.688.181 1.495.799 1.684a1.235 1.235 0 0 0 .721-2.362c-.708-.216-1.337.077-1.52.678ZM25.253 13.01c-.21.688.182 1.495.8 1.684a1.235 1.235 0 0 0 .721-2.361c-.708-.216-1.337.077-1.52.677Z" fill="#FAFAFA" stroke="#FAFAFA" stroke-width=".823"/></svg>